# xmcd
#
# Track frame offsets:
#	150
#	14288
#	32039
#	48800
#	65515
#	82986
#	101808
#	120885
#	139320
#	151698
#	169043
#	183283
#	206466
#	228234
#	243210
#
# Disc length: 3532 seconds
#
# Revision: 1
# Processed by: cddbd v1.5.1PL0 Copyright (c) Steve Scherf et al.
# Submitted via: audiograbber 1.83.01
#
DISCID=b00dca0f
DTITLE=Rimes, Leanne - Chartbuster CDG90020 LeAnn Rimes Vol 1
DYEAR=1900
DGENRE=Country
TTITLE0=Blue
TTITLE1=One Way Ticket (Because I Can)
TTITLE2=The Light In Your Eyes
TTITLE3=Nothin' New Under The Moon
TTITLE4=On The Side Of Angels
TTITLE5=Looking Through Your Eyes
TTITLE6=Commitment
TTITLE7=Unchained Melody
TTITLE8=Cowboy's Sweetheart
TTITLE9=You Light Up My Life
TTITLE10=hese Arms Of Mine
TTITLE11=Purple Rain
TTITLE12=Bridge Over Troubled Waters
TTITLE13=God Bless America
TTITLE14=I Know Who Holds Tomorrow
EXTD=
EXTT0=
EXTT1=
EXTT2=
EXTT3=
EXTT4=
EXTT5=
EXTT6=
EXTT7=
EXTT8=
EXTT9=
EXTT10=
EXTT11=
EXTT12=
EXTT13=
EXTT14=
PLAYORDER=
